<svg width="12" height="12" viewBox="0 0 12 12" fill="none" xmlns="http://www.w3.org/2000/svg">
<path d="M10 5.49985C9.87772 4.61996 9.46953 3.80468 8.83832 3.1796C8.2071 2.55452 7.38788 2.15431 6.50684 2.04063C5.62579 1.92695 4.73181 2.10609 3.9626 2.55048C3.19339 2.99486 2.59162 3.67982 2.25 4.49985M2 2.49985V4.49985H4M2 6.49985C2.12228 7.37974 2.53047 8.19502 3.16168 8.82011C3.7929 9.44519 4.61212 9.84539 5.49316 9.95908C6.37421 10.0728 7.26819 9.89361 8.0374 9.44923C8.80661 9.00485 9.40838 8.31989 9.75 7.49985M10 9.49985V7.49985H8" stroke="#231F20" stroke-linecap="round" stroke-linejoin="round"/>
</svg>
